<svg xmlns="http://www.w3.org/2000/svg"  viewBox="0 0 64 64" width="64px" height="64px"><path fill="#85cbf8" d="M51,17H13c-1.105,0-2,0.895-2,2v35c0,1.105,0.895,2,2,2h38c1.105,0,2-0.895,2-2V19 C53,17.895,52.105,17,51,17z"/><path fill="#7bbeeb" d="M42 17H53V56H42z"/><path fill="#ace3ff" d="M11 17H22V56H11z"/><path fill="#7bbeeb" d="M11 26v14l-5.091-1.621C5.375 38.156 5 37.356 5 36.439v-6.877c0-.918.375-1.718.909-1.94L11 26zM53 26v14l5.091-1.621C58.625 38.156 59 37.356 59 36.439v-6.877c0-.918-.375-1.718-.909-1.94L53 26z"/><path fill="#8d6c9f" d="M51,57H13c-1.654,0-3-1.346-3-3V19c0-1.654,1.346-3,3-3h38c1.654,0,3,1.346,3,3v35 C54,55.654,52.654,57,51,57z M13,18c-0.551,0-1,0.448-1,1v35c0,0.552,0.449,1,1,1h38c0.551,0,1-0.448,1-1V19c0-0.552-0.449-1-1-1 H13z"/><path fill="#f283a5" d="M39 17H25l1.621-8.485C26.844 7.625 27.644 7 28.562 7h6.877c.918 0 1.718.625 1.94 1.515L39 17zM7 9A3 3 0 1 0 7 15 3 3 0 1 0 7 9zM57 9A3 3 0 1 0 57 15 3 3 0 1 0 57 9zM22 25A5 5 0 1 0 22 35 5 5 0 1 0 22 25zM42 25A5 5 0 1 0 42 35 5 5 0 1 0 42 25z"/><path fill="#faefde" d="M22 28A2 2 0 1 0 22 32 2 2 0 1 0 22 28zM42 28A2 2 0 1 0 42 32 2 2 0 1 0 42 28z"/><path fill="#8d6c9f" d="M40.209 18H23.791l1.848-9.673C25.986 6.935 27.183 6 28.562 6h6.877c1.379 0 2.576.935 2.911 2.271L40.209 18zM26.209 16h11.582l-1.395-7.298C36.297 8.312 35.898 8 35.438 8h-6.877c-.459 0-.859.312-.97.758L26.209 16zM12 41.368l-6.394-2.036C4.598 38.916 4 37.792 4 36.438v-6.877c0-1.354.598-2.478 1.524-2.863L12 24.632V41.368zM6.295 37.452L10 38.632V27.368l-3.705 1.18C6.206 28.628 6 28.978 6 29.562v6.877C6 37.022 6.206 37.372 6.295 37.452zM52 41.368V24.632l6.394 2.036C59.402 27.084 60 28.208 60 29.562v6.877c0 1.354-.598 2.478-1.524 2.863L52 41.368zM54 27.368v11.264l3.705-1.18c.089-.08.295-.43.295-1.014v-6.877c0-.584-.206-.934-.295-1.014L54 27.368z"/><path fill="#f9dd8f" d="M39,17H25c-1.105,0-2-0.895-2-2v0c0-1.105,0.895-2,2-2h14c1.105,0,2,0.895,2,2v0 C41,16.105,40.105,17,39,17z"/><path fill="#8d6c9f" d="M39 18H25c-1.654 0-3-1.346-3-3s1.346-3 3-3h14c1.654 0 3 1.346 3 3S40.654 18 39 18zM25 14c-.551 0-1 .448-1 1s.449 1 1 1h14c.551 0 1-.448 1-1s-.449-1-1-1H25zM7 16c-2.206 0-4-1.794-4-4s1.794-4 4-4 4 1.794 4 4S9.206 16 7 16zM7 10c-1.103 0-2 .897-2 2s.897 2 2 2 2-.897 2-2S8.103 10 7 10z"/><path fill="#8d6c9f" d="M6 15H8V27H6zM57 16c-2.206 0-4-1.794-4-4s1.794-4 4-4 4 1.794 4 4S59.206 16 57 16zM57 10c-1.103 0-2 .897-2 2s.897 2 2 2 2-.897 2-2S58.103 10 57 10z"/><path fill="#8d6c9f" d="M56 15H58V27H56zM22 36c-3.309 0-6-2.691-6-6s2.691-6 6-6 6 2.691 6 6S25.309 36 22 36zM22 26c-2.206 0-4 1.794-4 4s1.794 4 4 4 4-1.794 4-4S24.206 26 22 26zM42 36c-3.309 0-6-2.691-6-6s2.691-6 6-6 6 2.691 6 6S45.309 36 42 36zM42 26c-2.206 0-4 1.794-4 4s1.794 4 4 4 4-1.794 4-4S44.206 26 42 26z"/><path fill="#fff8ee" d="M40,45H24c-0.552,0-1-0.448-1-1v-4c0-0.552,0.448-1,1-1h16c0.552,0,1,0.448,1,1v4 C41,44.552,40.552,45,40,45z"/><path fill="#8d6c9f" d="M40 46H24c-1.103 0-2-.897-2-2v-4c0-1.103.897-2 2-2h16c1.103 0 2 .897 2 2v4C42 45.103 41.103 46 40 46zM24 40v4h16.001L40 40H24zM17 53c-.552 0-1-.447-1-1v-2c0-.553.448-1 1-1s1 .447 1 1v2C18 52.553 17.552 53 17 53zM22 53c-.552 0-1-.447-1-1v-2c0-.553.448-1 1-1s1 .447 1 1v2C23 52.553 22.552 53 22 53zM27 53c-.552 0-1-.447-1-1v-2c0-.553.448-1 1-1s1 .447 1 1v2C28 52.553 27.552 53 27 53zM32 53c-.552 0-1-.447-1-1v-2c0-.553.448-1 1-1s1 .447 1 1v2C33 52.553 32.552 53 32 53zM37 53c-.552 0-1-.447-1-1v-2c0-.553.448-1 1-1s1 .447 1 1v2C38 52.553 37.552 53 37 53zM42 53c-.552 0-1-.447-1-1v-2c0-.553.448-1 1-1s1 .447 1 1v2C43 52.553 42.552 53 42 53zM47 53c-.552 0-1-.447-1-1v-2c0-.553.448-1 1-1s1 .447 1 1v2C48 52.553 47.552 53 47 53z"/></svg>