<svg xmlns="http://www.w3.org/2000/svg"  viewBox="0 0 64 64" width="64px" height="64px"><path fill="#f283a5" d="M35.939,32C45.022,27.264,54,20.856,54,4.003C54,2.897,53.104,2,52,2s-2,0.897-2,2.003 c0,16.081-8.866,20.963-18.5,25.761C21.866,24.965,13,20.083,13,4.003C13,2.897,12.104,2,11,2S9,2.897,9,4.003 C9,20.856,17.978,27.264,27.061,32C17.978,36.736,9,43.144,9,59.997C9,61.103,9.896,62,11,62s2-0.897,2-2.003 c0-16.081,8.866-20.963,18.5-25.761C41.134,39.035,50,43.917,50,59.997C50,61.103,50.896,62,52,62s2-0.897,2-2.003 C54,43.144,45.022,36.736,35.939,32z"/><path fill="#8d6c9f" d="M52,63c-1.654,0-3-1.347-3-3.002c0-15.66-8.818-20.316-17.5-24.645 C22.818,39.682,14,44.338,14,59.998C14,61.653,12.654,63,11,63s-3-1.347-3-3.002C8,43.382,16.458,36.645,24.937,32 C16.458,27.355,8,20.618,8,4.002C8,2.347,9.346,1,11,1s3,1.347,3,3.002c0,15.66,8.818,20.316,17.5,24.645 C40.182,24.318,49,19.662,49,4.002C49,2.347,50.346,1,52,1s3,1.347,3,3.002C55,20.618,46.542,27.355,38.063,32 C46.542,36.645,55,43.382,55,59.998C55,61.653,53.654,63,52,63z M31.5,33.236c0.153,0,0.306,0.035,0.446,0.105 C40.877,37.79,51,42.832,51,59.998C51,60.55,51.449,61,52,61s1-0.45,1-1.002c0-16.584-9.045-22.689-17.523-27.111 c-0.331-0.172-0.538-0.514-0.538-0.887s0.207-0.714,0.538-0.887C43.955,26.692,53,20.586,53,4.002C53,3.45,52.551,3,52,3 s-1,0.45-1,1.002c0,17.166-10.123,22.208-19.054,26.657c-0.28,0.14-0.611,0.14-0.892,0C22.123,26.21,12,21.168,12,4.002 C12,3.45,11.551,3,11,3s-1,0.45-1,1.002c0,16.584,9.045,22.689,17.523,27.111c0.331,0.172,0.538,0.514,0.538,0.887 s-0.207,0.714-0.538,0.887C19.045,37.308,10,43.414,10,59.998C10,60.55,10.449,61,11,61s1-0.45,1-1.002 c0-17.166,10.123-22.208,19.054-26.657C31.194,33.271,31.347,33.236,31.5,33.236z"/><path fill="#8d6c9f" d="M49,8H14c-0.552,0-1-0.448-1-1s0.448-1,1-1h35c0.552,0,1,0.448,1,1S49.552,8,49,8z"/><path fill="#8d6c9f" d="M34,13H14c-0.552,0-1-0.448-1-1s0.448-1,1-1h20c0.552,0,1,0.448,1,1S34.552,13,34,13z"/><path fill="#8d6c9f" d="M42,13h-4c-0.552,0-1-0.448-1-1s0.448-1,1-1h4c0.552,0,1,0.448,1,1S42.552,13,42,13z"/><path fill="#8d6c9f" d="M49,13h-3c-0.552,0-1-0.448-1-1s0.448-1,1-1h3c0.552,0,1,0.448,1,1S49.552,13,49,13z"/><path fill="#8d6c9f" d="M47,18H16c-0.552,0-1-0.448-1-1s0.448-1,1-1h31c0.552,0,1,0.448,1,1S47.552,18,47,18z"/><path fill="#8d6c9f" d="M25,23h-5c-0.552,0-1-0.448-1-1s0.448-1,1-1h5c0.552,0,1,0.448,1,1S25.552,23,25,23z"/><path fill="#8d6c9f" d="M43,23H29c-0.552,0-1-0.448-1-1s0.448-1,1-1h14c0.552,0,1,0.448,1,1S43.552,23,43,23z"/><path fill="#8d6c9f" d="M29,58H14c-0.552,0-1-0.448-1-1s0.448-1,1-1h15c0.552,0,1,0.448,1,1S29.552,58,29,58z"/><path fill="#8d6c9f" d="M35,58h-2c-0.552,0-1-0.448-1-1s0.448-1,1-1h2c0.552,0,1,0.448,1,1S35.552,58,35,58z"/><path fill="#8d6c9f" d="M43,58h-4c-0.552,0-1-0.448-1-1s0.448-1,1-1h4c0.552,0,1,0.448,1,1S43.552,58,43,58z"/><path fill="#8d6c9f" d="M49,58h-2c-0.552,0-1-0.448-1-1s0.448-1,1-1h2c0.552,0,1,0.448,1,1S49.552,58,49,58z"/><path fill="#8d6c9f" d="M49,53H14c-0.552,0-1-0.448-1-1s0.448-1,1-1h35c0.552,0,1,0.448,1,1S49.552,53,49,53z"/><path fill="#8d6c9f" d="M43,43H20c-0.552,0-1-0.448-1-1s0.448-1,1-1h23c0.552,0,1,0.448,1,1S43.552,43,43,43z"/><path fill="#8d6c9f" d="M39,45c-0.552,0-1,0.448-1,1v2c0,0.552,0.448,1,1,1s1-0.448,1-1v-2C40,45.448,39.552,45,39,45z M44,45c-0.552,0-1,0.448-1,1v2c0,0.552,0.448,1,1,1s1-0.448,1-1v-2C45,45.448,44.552,45,44,45z M44,45c-0.552,0-1,0.448-1,1v2 c0,0.552,0.448,1,1,1s1-0.448,1-1v-2C45,45.448,44.552,45,44,45z M34,45c-0.552,0-1,0.448-1,1v2c0,0.552,0.448,1,1,1s1-0.448,1-1 v-2C35,45.448,34.552,45,34,45z M29,45c-0.552,0-1,0.448-1,1v2c0,0.552,0.448,1,1,1s1-0.448,1-1v-2C30,45.448,29.552,45,29,45z M24,45c-0.552,0-1,0.448-1,1v2c0,0.552,0.448,1,1,1s1-0.448,1-1v-2C25,45.448,24.552,45,24,45z M19,45c-0.552,0-1,0.448-1,1v2 c0,0.552,0.448,1,1,1s1-0.448,1-1v-2C20,45.448,19.552,45,19,45z"/></svg>