<svg xmlns="http://www.w3.org/2000/svg"  viewBox="0 0 64 64" width="64px" height="64px"><path fill="#faefde" d="M8,59H55a4,4,0,0,0,4-4V8a3,3,0,0,0-3-3H14a3,3,0,0,0-3,3V56Z"/><rect width="48" height="4" x="11" y="5" fill="#fff7f0" rx="2" ry="2"/><path fill="#eb9697" d="M29 36.36L25 34.36 19 36.36 19 27.36 29 27.36 29 36.36z"/><path fill="#f9e3ae" d="M18.17,19.72,17,18.09l1.91-.63a1.09,1.09,0,0,0,.75-1v-2l1.92.61a1.1,1.1,0,0,0,1.21-.39L24,13l1.19,1.62a1.1,1.1,0,0,0,1.21.39l1.92-.61v2a1.09,1.09,0,0,0,.75,1l1.91.63-1.17,1.64a1.09,1.09,0,0,0,0,1.28L31,22.64l-1.91.63a1.09,1.09,0,0,0-.75,1v2l-1.92-.61a1.1,1.1,0,0,0-1.21.39L24,27.72,22.81,26.1a1.1,1.1,0,0,0-1.21-.39l-1.92.61v-2a1.09,1.09,0,0,0-.75-1L17,22.64,18.17,21A1.09,1.09,0,0,0,18.17,19.72Z"/><path fill="#f6d397" d="M29.62,20.36H18.38a1.09,1.09,0,0,1-.21.64L17,22.64l1.91.63a1.09,1.09,0,0,1,.75,1v2l1.92-.61a1.1,1.1,0,0,1,1.21.39L24,27.72l1.19-1.62a1.1,1.1,0,0,1,1.21-.39l1.92.61v-2a1.09,1.09,0,0,1,.75-1L31,22.64,29.83,21A1.09,1.09,0,0,1,29.62,20.36Z"/><path fill="#efd8be" d="M6 53H53V59H6z"/><path fill="#8d6c9f" d="M54,44a1,1,0,0,0-1,1v2a1,1,0,0,0,2,0V45A1,1,0,0,0,54,44Z"/><path fill="#eb9697" d="M52.46,41.11a1,1,0,0,0-1.35.42,8.87,8.87,0,0,1-2.51,2.54l-.12,0A5.59,5.59,0,0,0,49,42a3,3,0,0,0-1.42-2.81,1.93,1.93,0,0,0-2.06.25c-.42.34-1.36,1.38-.82,3.69a3.75,3.75,0,0,0,1.07,1.78,5.77,5.77,0,0,1-1.65,1.73.68.68,0,0,1-.29.11.73.73,0,0,1-.28-.13,3.84,3.84,0,0,1-.65-.54,16.55,16.55,0,0,0,1-5.14C44,38.71,43.52,37,42.6,36c-1.25-1.31-2.29-1.06-2.79-.8-1.74.91-1.74,4.22-1.15,7a11.86,11.86,0,0,0,1.94,4.19,8.77,8.77,0,0,1-1.86,2.67,1,1,0,0,0,1.37,1.46A10.23,10.23,0,0,0,42,48a5.06,5.06,0,0,0,.43.31,2.59,2.59,0,0,0,1.19.45,2.52,2.52,0,0,0,1.44-.35A8,8,0,0,0,47.47,46a2.71,2.71,0,0,0,1.93,0,10.22,10.22,0,0,0,3.49-3.46A1,1,0,0,0,52.46,41.11Zm-10.53-.26A14.23,14.23,0,0,1,41.45,44a8.84,8.84,0,0,1-.84-2.2c-.6-2.89-.18-4.45.09-4.78a1.72,1.72,0,0,1,.45.36A5.33,5.33,0,0,1,41.93,40.85ZM46.78,43a1.17,1.17,0,0,1-.13-.32A2.26,2.26,0,0,1,46.71,41c.06,0,.29.29.29,1A3,3,0,0,1,46.78,43Z"/><path fill="#8d6c9f" d="M57,4H13a3,3,0,0,0-3,3V52H6a2,2,0,0,0-2,2v2a4,4,0,0,0,4,4H56a4,4,0,0,0,4-4V7A3,3,0,0,0,57,4ZM8,58a2,2,0,0,1-2-2V54H52v2a4,4,0,0,0,.56,2H8Zm50-2a2,2,0,0,1-4,0V54a2,2,0,0,0-2-2H12V7a1,1,0,0,1,1-1H57a1,1,0,0,1,1,1Z"/><path fill="#8d6c9f" d="M16 44a1 1 0 0 0-1 1v2a1 1 0 0 0 2 0V45A1 1 0 0 0 16 44zM21 44a1 1 0 0 0-1 1v2a1 1 0 0 0 2 0V45A1 1 0 0 0 21 44zM26 44a1 1 0 0 0-1 1v2a1 1 0 0 0 2 0V45A1 1 0 0 0 26 44zM31 44a1 1 0 0 0-1 1v2a1 1 0 0 0 2 0V45A1 1 0 0 0 31 44zM36 44a1 1 0 0 0-1 1v2a1 1 0 0 0 2 0V45A1 1 0 0 0 36 44zM46 16h6a1 1 0 0 0 0-2H46a1 1 0 0 0 0 2zM38 16h4a1 1 0 0 0 0-2H38a1 1 0 0 0 0 2zM38 20H48a1 1 0 0 0 0-2H38a1 1 0 0 0 0 2zM48 30a1 1 0 0 0 0 2h2a1 1 0 0 0 0-2zM45 31a1 1 0 0 0-1-1H38a1 1 0 0 0 0 2h6A1 1 0 0 0 45 31zM38 28H52a1 1 0 0 0 0-2H38a1 1 0 0 0 0 2zM33 17.56a1 1 0 0 0-.64-.64L30 16.13l0-2.51a1 1 0 0 0-1.31-1l-2.36.76-1.47-2a1 1 0 0 0-1.62 0l-1.47 2-2.36-.76a1 1 0 0 0-1.31 1l0 2.51-2.35.79a1 1 0 0 0-.5 1.54l1.45 2-1.45 2a1 1 0 0 0 .5 1.54l2.32.78V37a1 1 0 0 0 1.37.93L24 36.08l4.63 1.85A1 1 0 0 0 30 37V24.86l2.32-.78a1 1 0 0 0 .5-1.54l-1.45-2 1.45-2A1 1 0 0 0 33 17.56zM24.37 34.07a1 1 0 0 0-.74 0L20 35.52V28.13l1.72-.55 1.47 2a1 1 0 0 0 1.63 0l1.47-2 1.72.55v7.39zm4.94-13L30.4 22.6l-1.75.59a1 1 0 0 0-.69.95V26l-1.74-.56a1 1 0 0 0-1.12.37L24 27.29l-1.08-1.49a1 1 0 0 0-.81-.41 1 1 0 0 0-.31 0L20.05 26V24.14a1 1 0 0 0-.69-.95L17.6 22.6l1.08-1.52a1 1 0 0 0 0-1.16L17.6 18.4l1.75-.59a1 1 0 0 0 .69-.95V15l1.74.56a1 1 0 0 0 1.12-.37L24 13.71l1.08 1.49a1 1 0 0 0 1.12.37L27.95 15v1.86a1 1 0 0 0 .69.95l1.75.59-1.08 1.52A1 1 0 0 0 29.32 21.08z"/></svg>