<svg xmlns="http://www.w3.org/2000/svg"  viewBox="0 0 64 64" width="64px" height="64px"><path fill="#cda1a7" d="M55,61H9c-1.105,0-2-0.895-2-2V7c0-1.105,0.895-2,2-2h46c1.105,0,2,0.895,2,2v52 C57,60.105,56.105,61,55,61z"/><path fill="#deb4ba" d="M56,7L56,7c0,0.552-0.448,1-1,1H9C8.448,8,8,7.552,8,7v0c0-0.552,0.448-1,1-1h46 C55.552,6,56,6.448,56,7z"/><path fill="#faefde" d="M13 55L43 55 51 47 51 11 13 11z"/><path fill="#bbdef9" d="M43 47L51 47 43 55z"/><path fill="#fff7f0" d="M51 35.474L51 14.632 17.573 54.882 33.882 54.882zM13.396 53.396L48.5 11 44 11 12.5 49.605zM13 43.421L39.5 11 38 11 13 41.527z"/><path fill="#fff" d="M31.919 42.746L33.157 45.01 35.421 46.248 33.157 47.486 31.919 49.75 30.681 47.486 28.417 46.248 30.681 45.01z"/><path fill="#f9e3ae" d="M42 6L32 1 22 6 21 13 43 13z"/><path fill="#fff" d="M25.75 21.335L26.605 22.899 28.169 23.754 26.605 24.609 25.75 26.173 24.895 24.609 23.331 23.754 24.895 22.899zM20.417 43.603L21 44.668 22.065 45.251 21 45.833 20.417 46.899 19.835 45.833 18.769 45.251 19.835 44.668z"/><g><path fill="#8d6c9f" d="M55,4H40.58l-2.7-1.96C36.12,0.76,34.06,0.12,32,0.12s-4.12,0.64-5.88,1.92L23.42,4H9 C7.35,4,6,5.35,6,7v52c0,1.65,1.35,3,3,3h46c1.65,0,3-1.35,3-3V7C58,5.35,56.65,4,55,4z M27.29,3.66c2.82-2.05,6.6-2.05,9.42,0 L37.18,4l2.74,2l0.84,0.61C41.54,7.17,42,8.08,42,9.04V10v1c0,0.55-0.45,1-1,1H23c-0.55,0-1-0.45-1-1v-1V9.04 c0-0.96,0.46-1.87,1.24-2.43L24.08,6l2.74-2L27.29,3.66z M50,46h-6c-1.103,0-2,0.897-2,2v6H14V12h6.18c0.41,1.16,1.52,2,2.82,2h18 c1.3,0,2.41-0.84,2.82-2H50V46z M48.59,48L44,52.59V48H48.59z M56,59c0,0.55-0.45,1-1,1H9c-0.55,0-1-0.45-1-1V7c0-0.55,0.45-1,1-1 h12.03C20.37,6.86,20,7.93,20,9.04V10h-6c-1.1,0-2,0.9-2,2v42c0,1.1,0.9,2,2,2h28.17c0.8,0,1.56-0.31,2.12-0.88l6.83-6.83 c0.57-0.56,0.88-1.32,0.88-2.12V12c0-1.1-0.9-2-2-2h-6V9.04c0-1.11-0.37-2.18-1.03-3.04H55c0.55,0,1,0.45,1,1V59z"/><path fill="#8d6c9f" d="M17 16c-.552 0-1 .447-1 1v2c0 .553.448 1 1 1s1-.447 1-1v-2C18 16.447 17.552 16 17 16zM22 20c.552 0 1-.447 1-1v-2c0-.553-.448-1-1-1s-1 .447-1 1v2C21 19.553 21.448 20 22 20zM27 20c.552 0 1-.447 1-1v-2c0-.553-.448-1-1-1s-1 .447-1 1v2C26 19.553 26.448 20 27 20zM32 20c.552 0 1-.447 1-1v-2c0-.553-.448-1-1-1s-1 .447-1 1v2C31 19.553 31.448 20 32 20zM38 17c0-.553-.448-1-1-1s-1 .447-1 1v2c0 .553.448 1 1 1s1-.447 1-1V17zM42 20c.552 0 1-.447 1-1v-2c0-.553-.448-1-1-1s-1 .447-1 1v2C41 19.553 41.448 20 42 20zM47 20c.552 0 1-.447 1-1v-2c0-.553-.448-1-1-1s-1 .447-1 1v2C46 19.553 46.448 20 47 20zM32 9c1.654 0 3-1.346 3-3s-1.346-3-3-3-3 1.346-3 3S30.346 9 32 9zM32 5c.551 0 1 .448 1 1s-.449 1-1 1-1-.448-1-1S31.449 5 32 5zM20 30h6c.552 0 1-.447 1-1s-.448-1-1-1h-6c-.552 0-1 .447-1 1S19.448 30 20 30zM34 28h-4c-.552 0-1 .447-1 1s.448 1 1 1h4c.552 0 1-.447 1-1S34.552 28 34 28zM34 38H20c-.552 0-1 .447-1 1s.448 1 1 1h14c.552 0 1-.447 1-1S34.552 38 34 38zM43 26h-4c-.552 0-1 .447-1 1v4c0 .553.448 1 1 1h4c.552 0 1-.447 1-1v-4C44 26.447 43.552 26 43 26zM42 30h-2v-2h2V30zM43 36h-4c-.552 0-1 .447-1 1v4c0 .553.448 1 1 1h4c.552 0 1-.447 1-1v-4C44 36.447 43.552 36 43 36zM42 40h-2v-2h2V40z"/></g></svg>