<svg xmlns="http://www.w3.org/2000/svg"  viewBox="0 0 64 64" width="64px" height="64px"><path fill="#f6d397" d="M10 7A5 5 0 1 0 10 17 5 5 0 1 0 10 7zM33 54A4 4 0 1 0 33 62 4 4 0 1 0 33 54z"/><path fill="#f9e3ae" d="M47,29c0,0.92-0.09,1.82-0.26,2.69c-0.2,1.01-0.5,1.98-0.9,2.9c-1.41,3.23-4.01,5.83-7.24,7.25 c-0.92,0.4-1.9,0.7-2.91,0.9C34.82,42.91,33.92,43,33,43c-2.43,0-4.71-0.62-6.7-1.72c-0.38-0.2-0.76-0.43-1.12-0.67 c-0.04-0.03-0.08-0.06-0.12-0.09C21.4,38,19,33.78,19,29c0-7.73,6.27-14,14-14c0.41,0,0.82,0.02,1.23,0.06 c1.22,0.1,2.4,0.36,3.51,0.77c0.82,0.29,1.6,0.66,2.34,1.09c1.06,0.63,2.04,1.39,2.89,2.26c0.57,0.58,1.09,1.2,1.55,1.87 c0.28,0.4,0.53,0.82,0.75,1.25C46.38,24.29,47,26.57,47,29z"/><path fill="#f6d397" d="M8 38A3 3 0 1 0 8 44 3 3 0 1 0 8 38zM54 41A7 7 0 1 0 54 55 7 7 0 1 0 54 41zM55 1A8 8 0 1 0 55 17 8 8 0 1 0 55 1z"/><path fill="#ffefca" d="M47 29c0 .92-.09 1.82-.26 2.69-.2 1.01-.5 1.98-.9 2.9l-.14.14L44 36.44h-.01l-.01.01-1.38 1.38-.01.01v.01l-3.99 3.99c-.92.4-1.9.7-2.91.9C34.82 42.91 33.92 43 33 43c-2.43 0-4.71-.62-6.7-1.72L45.27 22.3C46.38 24.29 47 26.57 47 29zM43.97 20.18l-19.7 19.69c-.83-.89-1.56-1.89-2.17-2.96l18.98-18.99C42.14 18.55 43.12 19.31 43.97 20.18zM38.74 16.83L21 34.57c-.41-1.09-.7-2.24-.85-3.44l2.88-2.88 2.22-2.21 9.98-9.98C36.45 16.16 37.63 16.42 38.74 16.83z"/><path fill="#fff8f8" d="M41.285 25.28L42.347 27.22 44.287 28.281 42.347 29.343 41.285 31.283 40.224 29.343 38.284 28.281 40.224 27.22zM28.589 37.03L29.088 37.943 30.001 38.442 29.088 38.942 28.589 39.855 28.09 38.942 27.176 38.442 28.09 37.943zM25.42 20.997L26.275 22.561 27.839 23.416 26.275 24.271 25.42 25.835 24.565 24.271 23.001 23.416 24.565 22.561z"/><path fill="#8d6c9f" d="M10 18c3.309 0 6-2.691 6-6s-2.691-6-6-6-6 2.691-6 6S6.691 18 10 18zM10 8c2.206 0 4 1.794 4 4s-1.794 4-4 4-4-1.794-4-4S7.794 8 10 8zM33 53c-2.757 0-5 2.243-5 5s2.243 5 5 5 5-2.243 5-5S35.757 53 33 53zM33 61c-1.654 0-3-1.346-3-3s1.346-3 3-3 3 1.346 3 3S34.654 61 33 61zM54 40c-1.97 0-3.78.72-5.17 1.91l-4.05-3.65C46.8 35.71 48 32.5 48 29c0-3.41-1.14-6.56-3.07-9.08l4.35-3.98C50.84 17.23 52.83 18 55 18c4.96 0 9-4.04 9-9 0-4.96-4.04-9-9-9s-9 4.04-9 9c0 2.07.7 3.98 1.88 5.5l-4.27 3.91C40.89 15.69 37.14 14 33 14c-4.71 0-8.92 2.18-11.67 5.6l-3.98-3.11c-.43-.35-1.06-.27-1.4.17-.34.43-.26 1.06.17 1.4l4.05 3.17C18.79 23.5 18 26.15 18 29c0 2.12.44 4.14 1.24 5.96l-8.1 3.56C10.41 37.59 9.27 37 8 37c-2.21 0-4 1.79-4 4 0 2.21 1.79 4 4 4s4-1.79 4-4c0-.22-.02-.43-.06-.64l8.22-3.61c2.47 4.07 6.82 6.88 11.84 7.21V50c0 .55.45 1 1 1s1-.45 1-1v-6.04c3.67-.24 6.97-1.8 9.45-4.21l4.03 3.63C46.55 44.68 46 46.28 46 48c0 4.41 3.59 8 8 8s8-3.59 8-8C62 43.59 58.41 40 54 40zM48 9c0-3.86 3.14-7 7-7s7 3.14 7 7-3.14 7-7 7c-1.59 0-3.05-.53-4.23-1.43-.54-.4-1.01-.89-1.41-1.43C48.5 11.98 48 10.55 48 9zM8 43c-1.1 0-2-.9-2-2 0-1.1.9-2 2-2 .44 0 .85.14 1.18.39C9.68 39.75 10 40.34 10 41c0 .08 0 .15-.01.22C9.88 42.22 9.02 43 8 43zM34 41.96C33.67 41.99 33.34 42 33 42s-.67-.01-1-.04c-4.21-.32-7.86-2.65-9.99-6.03-.36-.56-.68-1.16-.95-1.77C20.38 32.57 20 30.83 20 29c0-2.37.64-4.6 1.76-6.52.33-.58.71-1.13 1.14-1.65C25.28 17.89 28.92 16 33 16c3.56 0 6.79 1.44 9.14 3.76.48.47.92.98 1.31 1.52C45.05 23.44 46 26.12 46 29c0 2.97-1.01 5.72-2.7 7.92-.4.53-.85 1.03-1.34 1.49C39.86 40.42 37.07 41.73 34 41.96zM54 54c-3.31 0-6-2.69-6-6 0-1.21.36-2.34.98-3.28.36-.56.82-1.06 1.35-1.46C51.34 42.47 52.62 42 54 42c3.31 0 6 2.69 6 6S57.31 54 54 54z"/><path fill="#8d6c9f" d="M32,24h2c1.103,0,2,0.897,2,2c0,0.552,0.447,1,1,1s1-0.448,1-1c0-2.206-1.794-4-4-4v-1 c0-0.552-0.447-1-1-1s-1,0.448-1,1v1c-2.206,0-4,1.794-4,4s1.794,4,4,4h2c1.103,0,2,0.897,2,2s-0.897,2-2,2v-2 c0-0.552-0.447-1-1-1s-1,0.448-1,1v2c-1.103,0-2-0.897-2-2c0-0.552-0.447-1-1-1s-1,0.448-1,1c0,2.206,1.794,4,4,4v1 c0,0.552,0.447,1,1,1s1-0.448,1-1v-1c2.206,0,4-1.794,4-4s-1.794-4-4-4v-2c0-0.552-0.447-1-1-1s-1,0.448-1,1v2 c-1.103,0-2-0.897-2-2S30.897,24,32,24z"/></svg>