<svg xmlns="http://www.w3.org/2000/svg"  viewBox="0 0 64 64" width="64px" height="64px"><path fill="#faefde" d="M51.88,53.47l-1.22,4c-.06.19-.13.38-.2.57a8,8,0,0,1-6.33,5,8.06,8.06,0,0,1-1.11.08H25.75A8.32,8.32,0,0,1,24.63,63c-2-.28-2.35-1.41-3.63-3l-3-7c-1.25-1.56-5.08-6.23-6-8L8.93,26.6c.94-3.14,3.59-1.73,6.07.4l5,10,.84-28.47a3.54,3.54,0,0,1,7.08.09L28,28.08l.81-24a3.08,3.08,0,0,1,3.09-3h0a3.09,3.09,0,0,1,3.09,3l.9,24V8.63a3.55,3.55,0,0,1,7.1-.1l.6,19.55h.3V15.67a3.59,3.59,0,0,1,3.59-3.59h0a3.58,3.58,0,0,1,3.58,3.4l1.64,31A20.13,20.13,0,0,1,51.88,53.47Z"/><path fill="#efd8be" d="M49.52,58.83A6.76,6.76,0,0,1,44.13,63H24.63c-1-.14-2.92-1.9-4.58-3.62A2,2,0,0,1,21.5,56h26.2A2,2,0,0,1,49.52,58.83Z"/><path fill="#fff7f0" d="M17.47,41.8,10.74,25.12l3.38,1.61L17.85,33a8.06,8.06,0,0,1-.38,8.84Z"/><path fill="#ed7899" d="M45.27,35.43h0a5.89,5.89,0,0,0-8.33,0l-1,1-1-1a5.89,5.89,0,0,0-8.33,0h0a5.89,5.89,0,0,0,0,8.33L35.82,53l.11-.11L36,53l9.24-9.24A5.89,5.89,0,0,0,45.27,35.43Z"/><path fill="#8d6c9f" d="M53.41,44.06,51.75,15.49a4.59,4.59,0,0,0-8-2.87l-.12-4.05a4.55,4.55,0,0,0-8-2.89L35.67,4.1a4.09,4.09,0,0,0-8.19,0l-.05,1.57a4.54,4.54,0,0,0-7.94,2.9l-.61,23-.75-1.85A9.78,9.78,0,0,0,11.71,24,3,3,0,0,0,7.9,27.21L9,37.59c.38,3.5,1.76,8.44,4.49,11.84L15.6,52a19,19,0,0,1,3.16,5.76l.49,1.43A7,7,0,0,0,25.87,64h18a7,7,0,0,0,6.79-5.29l2.11-8.37A21,21,0,0,0,53.41,44.06Zm-2.55,5.76-2.11,8.37A5,5,0,0,1,43.9,62h-18a5,5,0,0,1-4.73-3.39l-.49-1.43a20.94,20.94,0,0,0-3.49-6.37l-2.07-2.59A22.39,22.39,0,0,1,11,37.38L9.89,27a1,1,0,0,1,1-1.11,1,1,0,0,1,.28,0,7.79,7.79,0,0,1,5.11,4.58L19,37.29a11,11,0,0,0,1,2,1,1,0,1,0,1.66-1.11,9.07,9.07,0,0,1-.85-1.61l-.17-.42a1,1,0,0,0,.05-.3l.73-27.19a2.54,2.54,0,0,1,5.08.06V28.14a1,1,0,0,0,1,1h.1a1,1,0,0,0,1-1l.81-24a2.09,2.09,0,0,1,4.19,0l.81,24a1.09,1.09,0,0,0,1.1,1,1,1,0,0,0,1-1V8.69a2.55,2.55,0,0,1,5.1-.07l.6,19.55a1,1,0,0,0,1,1h.3a1,1,0,0,0,1-1V15.73a2.59,2.59,0,0,1,5.18-.13l1.66,28.57A19,19,0,0,1,50.86,49.83Z"/><path fill="#8d6c9f" d="M25.18 55.86a1 1 0 0 0-1 1v2a1 1 0 0 0 2 0v-2A1 1 0 0 0 25.18 55.86zM30.18 55.86a1 1 0 0 0-1 1v2a1 1 0 0 0 2 0v-2A1 1 0 0 0 30.18 55.86zM35.18 55.86a1 1 0 0 0-1 1v2a1 1 0 0 0 2 0v-2A1 1 0 0 0 35.18 55.86zM40.18 55.86a1 1 0 0 0-1 1v2a1 1 0 0 0 2 0v-2A1 1 0 0 0 40.18 55.86zM45.18 55.86a1 1 0 0 0-1 1v2a1 1 0 0 0 2 0v-2A1 1 0 0 0 45.18 55.86zM36.26 34.85l-.24.24-.24-.24a6.88 6.88 0 0 0-9.73 9.73l8.73 8.73a1.76 1.76 0 0 0 2.48 0L46 44.57a6.88 6.88 0 0 0-9.73-9.73zm8.31 8.31L36 51.71l-8.55-8.55a4.88 4.88 0 0 1 6.9-6.9l.24.24-.41.41a1 1 0 1 0 1.41 1.41l.4-.4h0l1.65-1.65a4.88 4.88 0 0 1 6.9 6.9z"/></svg>