<svg xmlns="http://www.w3.org/2000/svg"  viewBox="0 0 64 64" width="64px" height="64px"><path fill="#acb7d0" d="M45 59L19 59 22 55 42 55z"/><path fill="#a0aecb" d="M27 49H37V55H27z"/><path fill="#c2cde7" d="M61,49H3c-1.105,0-2-0.895-2-2V11c0-1.105,0.895-2,2-2h58c1.105,0,2,0.895,2,2v36 C63,48.105,62.105,49,61,49z"/><path fill="#cfd9ed" d="M1 43H63V46H1z"/><path fill="#c5e4fa" d="M1 13H63V43H1z"/><path fill="#e3f2ff" d="M45.929 43L62 26.929 62 13 59.857 13 29.857 43zM19.143 43L25.571 43 55.571 13 49.143 13zM14.857 43L44.857 13 39.5 13 9.5 43z"/><path fill="#fff8f8" d="M10.502 21.996L11.74 24.26 14.004 25.498 11.74 26.736 10.502 29 9.264 26.736 7 25.498 9.264 24.26zM53.419 17.162L54.274 18.726 55.838 19.581 54.274 20.436 53.419 22 52.564 20.436 51 19.581 52.564 18.726zM44.648 34.704L45.231 35.769 46.296 36.352 45.231 36.935 44.648 38 44.065 36.935 43 36.352 44.065 35.769z"/><path fill="#f9e3ae" d="M42,20.71l-0.28,3.83c-0.3,4.23-2.27,8.17-5.47,10.95l-3.7,3.22c-0.16,0.13-0.35,0.2-0.55,0.19 c-0.17,0-0.37-0.06-0.51-0.19l-3.7-3.22c-3.2-2.78-5.17-6.72-5.47-10.95l-0.28-3.83c-0.02-0.44,0.31-0.82,0.75-0.85l1.45-0.09 c2.45-0.17,4.8-1.08,6.72-2.61l0.56-0.45c0.13-0.12,0.31-0.18,0.48-0.18c0.18,0,0.37,0.06,0.52,0.18l0.56,0.45 c1.92,1.53,4.27,2.44,6.72,2.61l1.45,0.09C41.69,19.89,42.03,20.27,42,20.71z"/><path fill="#f6d397" d="M42,20.71l-0.28,3.83c-0.3,4.23-2.27,8.17-5.47,10.95l-3.7,3.22c-0.16,0.13-0.35,0.2-0.55,0.19 V16.53c0.18,0,0.37,0.06,0.52,0.18l0.56,0.45c1.92,1.53,4.27,2.44,6.72,2.61l1.45,0.09C41.69,19.89,42.03,20.27,42,20.71z"/><path fill="#8d6c9f" d="M61,8H3c-1.654,0-3,1.346-3,3v36c0,1.654,1.346,3,3,3h23v4h-2.343c-1.335,0-2.591,0.52-3.535,1.464 l-2.829,2.829c-0.286,0.286-0.372,0.716-0.217,1.09C17.231,59.756,17.596,60,18,60h28c0.404,0,0.769-0.244,0.924-0.617 c0.155-0.374,0.069-0.804-0.217-1.09l-2.829-2.829C42.934,54.52,41.679,54,40.343,54H38v-4h23c1.654,0,3-1.346,3-3V11 C64,9.346,62.654,8,61,8z M40.343,56c0.79,0,1.562,0.32,2.121,0.878L43.586,58H20.414l1.122-1.122 C22.094,56.32,22.867,56,23.657,56H26h12H40.343z M28,54v-4h8v4H28z M62,42h-3c-0.552,0-1,0.448-1,1s0.448,1,1,1h3v3 c0,0.551-0.449,1-1,1H38H26H3c-0.551,0-1-0.449-1-1v-3h37.083c0.552,0,1-0.448,1-1s-0.448-1-1-1H2V11c0-0.551,0.449-1,1-1h58 c0.551,0,1,0.449,1,1V42z"/><path fill="#8d6c9f" d="M44 41c-.552 0-1 .448-1 1v2c0 .552.448 1 1 1s1-.448 1-1v-2C45 41.448 44.552 41 44 41zM49 41c-.552 0-1 .448-1 1v2c0 .552.448 1 1 1s1-.448 1-1v-2C50 41.448 49.552 41 49 41zM54 41c-.552 0-1 .448-1 1v2c0 .552.448 1 1 1s1-.448 1-1v-2C55 41.448 54.552 41 54 41zM59 12h-4c-.552 0-1 .448-1 1s.448 1 1 1h4c.552 0 1-.448 1-1S59.552 12 59 12zM51 12H5c-.552 0-1 .448-1 1s.448 1 1 1h46c.552 0 1-.448 1-1S51.552 12 51 12zM41.317 18.864l-1.451-.097c-2.26-.15-4.39-.978-6.159-2.394l-.561-.448c-.665-.53-1.59-.528-2.251 0l-.562.449c-1.768 1.415-3.897 2.242-6.157 2.393l-1.452.097c-.987.065-1.74.923-1.678 1.921l.276 3.827c.325 4.525 2.391 8.658 5.815 11.636l3.7 3.217c.337.294.76.44 1.183.44s.846-.146 1.183-.439l3.701-3.218c3.424-2.978 5.489-7.11 5.815-11.637l.276-3.834C43.06 19.788 42.307 18.93 41.317 18.864zM40.726 24.468c-.289 3.995-2.112 7.643-5.134 10.271l-3.571 3.105-3.57-3.105c-3.022-2.628-4.846-6.275-5.134-10.271l-.261-3.621 1.253-.083c2.67-.178 5.186-1.155 7.273-2.827l.438-.35.438.35c2.09 1.672 4.605 2.649 7.275 2.827l1.252.083L40.726 24.468z"/></svg>